<svg xmlns="http://www.w3.org/2000/svg" viewBox="0 0 27 32" version="1.0" fit="" height="100%" width="100%" preserveAspectRatio="xMidYMid meet" style="pointer-events: none; display: inline-block;" fill="rgba(157,143,98,1)"><path d="M18.723 21.788c-1.15-.48-3.884-1.423-5.565-1.92-.143-.044-.166-.05-.166-.648 0-.493.203-.99.4-1.41.215-.455.47-1.223.56-1.91.255-.297.602-.88.826-1.994.196-.98.104-1.338-.026-1.673-.013-.035-.028-.07-.038-.105-.05-.23.018-1.425.186-2.352.116-.636-.03-1.99-.906-3.108-.553-.707-1.61-1.576-3.544-1.696H9.39c-1.9.12-2.96.99-3.513 1.696C5 7.788 4.857 9.14 4.97 9.776c.17.928.237 2.123.188 2.348-.01.04-.025.074-.04.11-.128.335-.22.692-.024 1.673.222 1.113.57 1.697.826 1.993.09.688.344 1.456.56 1.912.156.334.23.788.23 1.43 0 .598-.024.605-.158.647-1.738.512-4.505 1.512-5.537 1.964-.818.35-1.017.98-1.017 1.548v2.623c0 .37.22 1.006 1.017 1.006h17.899c.796 0 1.017-.633 1.017-1.005v-2.623s-.392-1.262-1.21-1.613zm.153 4.192H1.05V23.4c0-.317.09-.46.387-.586.994-.435 3.74-1.426 5.434-1.926.89-.282.89-1.07.89-1.646 0-.8-.106-1.397-.33-1.878-.173-.366-.393-1.022-.47-1.6l-.04-.313-.206-.237c-.113-.13-.396-.538-.59-1.513-.153-.76-.085-.935-.03-1.076.03-.076.057-.152.08-.237l.005-.022.004-.022c.105-.495-.037-1.962-.18-2.755-.068-.365.016-1.4.7-2.273.417-.534 1.228-1.19 2.72-1.293h.993c1.22.082 2.145.517 2.752 1.293.68.872.765 1.91.7 2.275-.15.814-.288 2.257-.18 2.758l.007.04.01.037c.017.054.037.108.057.16l.01.027v.002c.06.153.127.326-.024 1.087-.196.975-.48 1.385-.592 1.516l-.204.237-.042.31c-.076.578-.296 1.237-.468 1.603-.247.525-.5 1.157-.5 1.856 0 .577 0 1.367.918 1.655 1.64.485 4.345 1.416 5.448 1.877.418.18.574.493.574.65l-.006 2.578zM23.078 14.44v-4.184h-1.05v4.185h-4.185v1.05h4.186v4.185h1.048V15.49h4.185v-1.05z"></path></svg>