<svg xmlns="http://www.w3.org/2000/svg" viewBox="0 0 32 32" version="1.0" fit="" height="100%" width="100%" preserveAspectRatio="xMidYMid meet" style="pointer-events: none; display: inline-block;" fill="rgba(255,255,255,1)"><path d="M29.23 13.342L17.633 1.747C17.198 1.31 16.618 1.07 16 1.07s-1.196.24-1.632.677L11.84 4.275H8.005V8.11l-5.332 5.33v17.49H29.33V13.443l-.1-.1zm-1.105.405l-4.13 4.13V9.618l4.13 4.128zM15.12 2.5c.47-.47 1.29-.47 1.76 0l1.774 1.774h-5.307L15.12 2.5zm4.6 2.84l3.21 3.212v10.39l-2.47 2.47-2.828-2.83c-.436-.436-1.016-.677-1.633-.677s-1.198.24-1.634.677l-2.87 2.87-2.427-2.426V5.34h10.648zm-15.34 7.9l3.624-3.624v8.343l-4.172-4.173.548-.548zm-.642 2.818v-.856l7.003 7.003-.078.08-6.924 6.922v-13.15zm.85 13.806l.574-.573h.002l9.957-9.955c.47-.47 1.29-.47 1.76 0l10.53 10.53H4.59zM28.263 15.36v13.848l-7.046-7.043 7.046-7.046v.24z"></path><path d="M12.268 8.54h7.464v1.065h-7.464V8.54zM12.268 14.937h7.464v1.066h-7.464v-1.066zM12.268 11.738h5.33v1.066h-5.33v-1.066z"></path></svg>