<svg xmlns="http://www.w3.org/2000/svg" viewBox="0 0 32 32" version="1.0" fit="" height="100%" width="100%" preserveAspectRatio="xMidYMid meet" style="pointer-events: none; display: inline-block;" fill="rgba(157,143,98,1)"><path d="M29.86 22.698V3.506H2.14v19.192h13.328v2.062l-5.056 2.8.516.933L16 25.683l5.072 2.81.516-.933-5.056-2.8v-2.062H29.86zM3.206 4.572h25.59v17.06H3.205V4.572z"></path><path d="M15.294 15.427l-3.162-4.41-2.116 4.103L6.69 8.407l-2.43 8.965 1.03.28 1.693-6.25 3.014 6.08 2.284-4.427 3.415 4.76 2.948-9.89-1.02-.306zM23.464 9.903c-1.764 0-3.2 1.435-3.2 3.2s1.436 3.198 3.2 3.198c1.763 0 3.198-1.434 3.198-3.198s-1.435-3.2-3.198-3.2zm0 5.332c-1.176 0-2.133-.956-2.133-2.133s.958-2.133 2.134-2.133 2.132.955 2.132 2.132-.956 2.133-2.132 2.133z"></path></svg>