<svg xmlns="http://www.w3.org/2000/svg" viewBox="0 0 32 32" version="1.0" fit="" height="100%" width="100%" preserveAspectRatio="xMidYMid meet" style="pointer-events: none; display: inline-block;" fill="rgba(157,143,98,1)"><path d="M28.795 6.404H3.205c-.883 0-1.6.716-1.6 1.6v15.993c0 .884.717 1.6 1.6 1.6h25.59c.883 0 1.6-.716 1.6-1.6V8.003c0-.883-.717-1.6-1.6-1.6zM2.672 10.67h26.656V12.8H2.672V10.67zm26.656 13.327c0 .294-.24.533-.533.533H3.205c-.294 0-.533-.24-.533-.533v-10.13h26.656v10.13zM2.672 9.602v-1.6c0-.293.24-.532.533-.532h25.59c.294 0 .533.24.533.533v1.6H2.672z"></path><path d="M4.804 21.33h10.662v1.067H4.804V21.33zM4.804 18.133h6.398V19.2H4.805v-1.067zM23.98 22.398h2.166c.58 0 1.05-.462 1.05-1.034V21.3c0-.57-.47-1.035-1.05-1.035H23.98c-.58 0-1.05.463-1.05 1.035v.064c0 .572.47 1.034 1.05 1.034z"></path></svg>