<svg xmlns="http://www.w3.org/2000/svg" viewBox="0 0 32 32" version="1.0" fit="" height="100%" width="100%" preserveAspectRatio="xMidYMid meet" style="pointer-events: none; display: inline-block;" fill="rgba(157,143,98,1)"><path d="M28.795 4.005H3.205v6.93h1.067v17.06H27.73v-17.06h1.065v-6.93zM26.663 26.93H5.34V10.934h21.323V26.93zM27.73 9.87H4.27v-4.8H27.73v4.8z"></path><path d="M12.144 17.87h7.74c1.1 0 1.995-.867 1.995-1.938v-.386c0-1.07-.895-1.94-1.997-1.94h-7.74c-1.1 0-1.994.87-1.994 1.94v.386c0 1.07.89 1.94 1.994 1.94zm-.93-2.325c0-.482.417-.873.93-.873h7.738c.512 0 .93.392.93.873v.386c0 .483-.418.874-.93.874h-7.74c-.51 0-.927-.392-.927-.873v-.385z"></path></svg>